<?xml version="1.0" standalone="no"?>
<!DOCTYPE svg PUBLIC "-//W3C//DTD SVG 20010904//EN"
 "http://www.w3.org/TR/2001/REC-SVG-20010904/DTD/svg10.dtd">
<svg version="1.0" xmlns="http://www.w3.org/2000/svg"
 width="256.000000pt" height="256.000000pt" viewBox="0 0 256.000000 256.000000"
 preserveAspectRatio="xMidYMid meet">

<g transform="translate(0.000000,256.000000) scale(0.100000,-0.100000)"
fill="#000000" stroke="none">
<path d="M1044 2355 c-4 -9 -4 -46 -2 -83 9 -122 86 -240 209 -320 l60 -40
-34 -21 c-64 -39 -117 -87 -157 -140 -70 -93 -106 -266 -60 -291 27 -14 58 2
66 35 l6 25 268 0 268 0 11 -30 c7 -22 16 -30 33 -30 35 0 48 19 48 70 0 132
-76 258 -212 349 -27 18 -48 34 -48 36 0 1 20 15 44 29 74 43 144 119 179 193
27 58 31 79 32 148 l0 80 -35 0 c-28 0 -35 -4 -40 -25 l-6 -25 -274 0 -274 0
-6 25 c-4 19 -13 26 -38 28 -22 2 -34 -2 -38 -13z m611 -152 c-13 -53 -11 -53
-256 -53 l-228 0 -16 30 c-8 16 -15 34 -15 40 0 7 85 10 261 10 l261 0 -7 -27z
m-91 -134 c-12 -21 -158 -110 -170 -105 -8 3 -46 27 -86 53 l-73 48 140 5 c77
3 153 7 168 8 18 1 26 -2 21 -9z m-87 -248 c33 -21 64 -44 67 -50 5 -8 -36
-11 -143 -11 -83 0 -151 2 -151 5 0 10 135 94 151 95 9 0 43 -18 76 -39z m170
-176 c9 -19 14 -37 11 -40 -3 -3 -120 -4 -260 -3 l-256 3 15 38 15 37 229 0
229 0 17 -35z"/>
<path d="M2035 1469 c-16 -5 -105 -67 -196 -139 -134 -104 -168 -136 -172
-159 -9 -43 -69 -105 -115 -119 -46 -14 -430 -16 -450 -3 -8 5 -12 17 -10 27
3 18 18 19 218 24 180 4 220 8 247 23 61 33 72 99 24 140 -28 23 -38 24 -193
29 -158 5 -165 7 -248 41 -125 52 -185 67 -265 67 -89 0 -150 -18 -229 -66
-33 -21 -103 -54 -156 -75 -55 -21 -96 -43 -98 -52 -2 -8 25 -94 59 -191 49
-139 65 -176 80 -176 9 0 55 15 101 33 117 45 149 42 403 -38 252 -79 274 -83
351 -60 87 25 272 104 329 140 69 45 440 423 449 457 9 38 -8 74 -43 93 -33
17 -43 17 -86 4z"/>
<path d="M1210 647 c-19 -6 -50 -27 -70 -47 -93 -93 -73 -296 35 -357 48 -27
131 -31 177 -7 28 15 32 15 40 0 11 -19 64 -22 69 -3 2 6 3 58 1 115 l-3 103
-82 -3 -82 -3 0 -30 c0 -28 3 -30 45 -35 25 -3 44 -8 43 -12 -2 -5 -3 -15 -3
-23 0 -21 -58 -55 -93 -55 -80 0 -121 58 -115 163 3 63 7 72 36 98 25 22 42
29 75 29 45 0 87 -22 87 -46 0 -10 12 -14 45 -14 50 0 53 6 29 56 -31 66 -143
100 -234 71z"/>
<path d="M710 615 l0 -34 63 -3 62 -3 3 -177 2 -178 40 0 40 0 2 178 3 177 63
3 62 3 0 34 0 35 -170 0 -170 0 0 -35z"/>
<path d="M1620 533 c-24 -65 -58 -158 -76 -208 -19 -49 -30 -93 -25 -98 5 -5
24 -7 42 -5 30 3 35 8 50 48 l17 45 77 0 77 0 17 -45 c15 -40 20 -45 50 -48
18 -2 38 1 43 6 5 5 -22 91 -68 215 l-77 207 -43 0 -42 0 -42 -117z m114 -71
l25 -72 -54 0 -54 0 26 76 c14 41 27 73 29 71 2 -2 15 -36 28 -75z"/>
</g>
</svg>
